<svg xmlns="http://www.w3.org/2000/svg" viewBox="0 0 32 32" shape-rendering="crispEdges">
<!-- 八卦 -->
<circle cx="16" cy="16" r="13" fill="#1a1308" stroke="#d4a23a" stroke-width="1"/>
<path d="M16 4 A 12 12 0 0 1 16 28 A 6 6 0 0 1 16 16 A 6 6 0 0 0 16 4 Z" fill="#f4e2a8"/>
<circle cx="16" cy="10" r="2" fill="#1a1308"/>
<circle cx="16" cy="22" r="2" fill="#f4e2a8"/>
<!-- 8 trigrams (small dashes around) -->
<rect x="15" y="0" width="2" height="2" fill="#d4a23a"/>
<rect x="15" y="30" width="2" height="2" fill="#d4a23a"/>
<rect x="0" y="15" width="2" height="2" fill="#d4a23a"/>
<rect x="30" y="15" width="2" height="2" fill="#d4a23a"/>
<rect x="3" y="3" width="2" height="2" fill="#d4a23a"/>
<rect x="27" y="3" width="2" height="2" fill="#d4a23a"/>
<rect x="3" y="27" width="2" height="2" fill="#d4a23a"/>
<rect x="27" y="27" width="2" height="2" fill="#d4a23a"/>
</svg>
