<svg xmlns="http://www.w3.org/2000/svg" viewBox="0 0 64 32" shape-rendering="crispEdges">
<!-- 仙山远景 -->
<rect width="64" height="32" fill="none"/>
<!-- 远山 -->
<polygon points="0,32 8,16 16,22 24,12 32,18 40,8 48,18 56,14 64,22 64,32" fill="#2d3b2e"/>
<polygon points="0,32 6,20 12,24 20,14 28,20 36,10 44,20 52,16 60,24 64,32" fill="#3d5040"/>
<!-- 主峰 -->
<polygon points="20,32 28,10 36,32" fill="#5a6f4f"/>
<polygon points="24,32 28,16 32,32" fill="#7a8c66"/>
<!-- 雪顶 -->
<polygon points="26,14 28,10 30,14" fill="#e8e2c8"/>
<!-- 云带 -->
<rect x="14" y="20" width="6" height="1" fill="#d4c89a" opacity="0.7"/>
<rect x="38" y="18" width="8" height="1" fill="#d4c89a" opacity="0.7"/>
<rect x="2" y="24" width="10" height="1" fill="#d4c89a" opacity="0.5"/>
<!-- 太阳 -->
<circle cx="50" cy="6" r="3" fill="#f2b544"/>
</svg>
